<?xml version="1.0" encoding="UTF-8"?>
<!DOCTYPE svg PUBLIC "-//W3C//DTD SVG 1.1//EN" "http://www.w3.org/Graphics/SVG/1.1/DTD/svg11.dtd">
<svg xmlns="http://www.w3.org/2000/svg" version="1.1" width="120px" height="120px" style="shape-rendering:geometricPrecision; text-rendering:geometricPrecision; image-rendering:optimizeQuality; fill-rule:evenodd; clip-rule:evenodd" xmlns:xlink="http://www.w3.org/1999/xlink">
<g><path style="opacity:0.937" fill="#ccaf12" d="M 58.5,2.5 C 60.4275,6.07972 62.0941,9.91305 63.5,14C 67.8333,14.3333 72.1667,14.6667 76.5,15C 72.9005,17.6165 69.5672,20.4498 66.5,23.5C 67.3991,26.6973 68.3991,29.864 69.5,33C 69.1667,33.5 68.8333,34 68.5,34.5C 65.1927,32.3596 62.026,30.0263 59,27.5C 55.974,30.0263 52.8073,32.3596 49.5,34.5C 49.1667,34 48.8333,33.5 48.5,33C 49.6009,29.864 50.6009,26.6973 51.5,23.5C 48.4328,20.4498 45.0995,17.6165 41.5,15C 45.8711,14.8275 50.2044,14.3275 54.5,13.5C 55.842,9.80489 57.1753,6.13823 58.5,2.5 Z M 62.5,16.5 C 64.1667,17.1667 65.8333,17.8333 67.5,18.5C 65.513,19.1642 63.8463,20.3308 62.5,22C 63.464,23.7255 64.1307,25.5588 64.5,27.5C 64.1667,27.5 63.8333,27.5 63.5,27.5C 62.1434,26.3146 60.6434,25.3146 59,24.5C 57.2691,25.741 55.4358,26.741 53.5,27.5C 55.6046,23.2789 54.6046,20.2789 50.5,18.5C 51.8333,17.8333 53.1667,17.1667 54.5,16.5C 55.4959,16.5858 56.3292,16.2524 57,15.5C 57.4709,13.7536 58.1376,12.087 59,10.5C 59.353,13.1525 60.5197,15.1525 62.5,16.5 Z"/></g>
<g><path style="opacity:0.114" fill="#413708" d="M 63.5,27.5 C 63.8333,27.5 64.1667,27.5 64.5,27.5C 65.5037,30.105 65.1704,30.105 63.5,27.5 Z"/></g>
<g><path style="opacity:0.043" fill="#302805" d="M 62.5,16.5 C 64.8568,16.3367 67.1902,16.5034 69.5,17C 68.9558,17.7172 68.2891,18.2172 67.5,18.5C 65.8333,17.8333 64.1667,17.1667 62.5,16.5 Z"/></g>
<g><path style="opacity:0.043" fill="#2e2704" d="M 54.5,16.5 C 53.1667,17.1667 51.8333,17.8333 50.5,18.5C 49.7109,18.2172 49.0442,17.7172 48.5,17C 50.4727,16.5045 52.4727,16.3379 54.5,16.5 Z"/></g>
<g><path style="opacity:0.282" fill="#7c680a" d="M 41.5,42.5 C 45.1667,43.1667 48.8333,43.8333 52.5,44.5C 46.9066,44.1934 41.4066,44.5268 36,45.5C 35.4092,44.5165 35.7425,43.8499 37,43.5C 38.4397,42.8524 39.9397,42.5191 41.5,42.5 Z"/></g>
<g><path style="opacity:1" fill="#e9c513" d="M 87.5,89.5 C 88.973,86.9831 89.6397,84.1498 89.5,81C 89.4944,78.9674 89.1611,77.134 88.5,75.5C 84.306,56.3658 72.306,46.0325 52.5,44.5C 48.8333,43.8333 45.1667,43.1667 41.5,42.5C 61.1038,37.3128 77.6038,42.3128 91,57.5C 101.139,73.02 100.973,88.3533 90.5,103.5C 92.1491,105.65 93.9824,107.65 96,109.5C 97.0246,113.45 95.5246,115.783 91.5,116.5C 88.5421,114.714 85.7088,112.714 83,110.5C 65.9466,119.603 50.2799,117.603 36,104.5C 33.5524,108.615 30.7191,112.448 27.5,116C 20.0534,116.626 17.8868,113.46 21,106.5C 24.4646,104.037 27.6312,101.204 30.5,98C 29.8333,97.3333 29.1667,96.6667 28.5,96C 30.1751,92.6798 32.1751,92.1798 34.5,94.5C 35.086,94.2907 35.586,93.9574 36,93.5C 38.9033,96.0166 41.07,98.5166 42.5,101C 51.2096,106.049 60.5429,107.716 70.5,106C 72.9969,105.588 74.9969,104.422 76.5,102.5C 66.984,92.8179 57.6507,82.9846 48.5,73C 44.4053,74.3294 40.9053,76.8294 38,80.5C 34.6667,77.1667 31.3333,73.8333 28,70.5C 27.3333,69.8333 27.3333,69.1667 28,68.5C 33.5313,62.634 39.3647,57.134 45.5,52C 50.1667,51.3333 54.8333,51.3333 59.5,52C 60.354,53.0217 61.354,53.8551 62.5,54.5C 63.521,55.0016 63.6877,55.6683 63,56.5C 59.8333,59.6667 56.6667,62.8333 53.5,66C 63.5883,75.1081 73.2549,84.7748 82.5,95C 83.4491,95.6172 84.2825,95.4506 85,94.5C 85.7568,92.6854 86.5902,91.0188 87.5,89.5 Z"/></g>
<g><path style="opacity:0.843" fill="#ab900e" d="M 88.5,75.5 C 89.1611,77.134 89.4944,78.9674 89.5,81C 89.6397,84.1498 88.973,86.9831 87.5,89.5C 88.2295,84.8696 88.5628,80.2029 88.5,75.5 Z"/></g>
</svg>
